<?xml version="1.0" encoding="UTF-8"?>

<svg version="1.2" baseProfile="tiny" width="105.01mm" height="105.01mm" viewBox="6000 4000 10501 10501" preserveAspectRatio="xMidYMid" fill-rule="evenodd" stroke-width="28.222" stroke-linejoin="round" xmlns="http://www.w3.org/2000/svg" xmlns:ooo="http://xml.openoffice.org/svg/export" xmlns:xlink="http://www.w3.org/1999/xlink" xml:space="preserve">
 <defs class="ClipPathGroup">
  <clipPath id="presentation_clip_path" clipPathUnits="userSpaceOnUse">
   <rect x="6000" y="4000" width="10501" height="10501"/>
  </clipPath>
 </defs>
 <defs class="TextShapeIndex">
  <g ooo:slide="id1" ooo:id-list="id3 id4 id5 id6 id7 id8 id9 id10 id11 id12 id13 id14"/>
 </defs>
 <defs class="EmbeddedBulletChars">
  <g id="bullet-char-template(57356)" transform="scale(0.00048828125,-0.00048828125)">
   <path d="M 580,1141 L 1163,571 580,0 -4,571 580,1141 Z"/>
  </g>
  <g id="bullet-char-template(57354)" transform="scale(0.00048828125,-0.00048828125)">
   <path d="M 8,1128 L 1137,1128 1137,0 8,0 8,1128 Z"/>
  </g>
  <g id="bullet-char-template(10146)" transform="scale(0.00048828125,-0.00048828125)">
   <path d="M 174,0 L 602,739 174,1481 1456,739 174,0 Z M 1358,739 L 309,1346 659,739 1358,739 Z"/>
  </g>
  <g id="bullet-char-template(10132)" transform="scale(0.00048828125,-0.00048828125)">
   <path d="M 2015,739 L 1276,0 717,0 1260,543 174,543 174,936 1260,936 717,1481 1274,1481 2015,739 Z"/>
  </g>
  <g id="bullet-char-template(10007)" transform="scale(0.00048828125,-0.00048828125)">
   <path d="M 0,-2 C -7,14 -16,27 -25,37 L 356,567 C 262,823 215,952 215,954 215,979 228,992 255,992 264,992 276,990 289,987 310,991 331,999 354,1012 L 381,999 492,748 772,1049 836,1024 860,1049 C 881,1039 901,1025 922,1006 886,937 835,863 770,784 769,783 710,716 594,584 L 774,223 C 774,196 753,168 711,139 L 727,119 C 717,90 699,76 672,76 641,76 570,178 457,381 L 164,-76 C 142,-110 111,-127 72,-127 30,-127 9,-110 8,-76 1,-67 -2,-52 -2,-32 -2,-23 -1,-13 0,-2 Z"/>
  </g>
  <g id="bullet-char-template(10004)" transform="scale(0.00048828125,-0.00048828125)">
   <path d="M 285,-33 C 182,-33 111,30 74,156 52,228 41,333 41,471 41,549 55,616 82,672 116,743 169,778 240,778 293,778 328,747 346,684 L 369,508 C 377,444 397,411 428,410 L 1163,1116 C 1174,1127 1196,1133 1229,1133 1271,1133 1292,1118 1292,1087 L 1292,965 C 1292,929 1282,901 1262,881 L 442,47 C 390,-6 338,-33 285,-33 Z"/>
  </g>
  <g id="bullet-char-template(9679)" transform="scale(0.00048828125,-0.00048828125)">
   <path d="M 813,0 C 632,0 489,54 383,161 276,268 223,411 223,592 223,773 276,916 383,1023 489,1130 632,1184 813,1184 992,1184 1136,1130 1245,1023 1353,916 1407,772 1407,592 1407,412 1353,268 1245,161 1136,54 992,0 813,0 Z"/>
  </g>
  <g id="bullet-char-template(8226)" transform="scale(0.00048828125,-0.00048828125)">
   <path d="M 346,457 C 273,457 209,483 155,535 101,586 74,649 74,723 74,796 101,859 155,911 209,963 273,989 346,989 419,989 480,963 531,910 582,859 608,796 608,723 608,648 583,586 532,535 482,483 420,457 346,457 Z"/>
  </g>
  <g id="bullet-char-template(8211)" transform="scale(0.00048828125,-0.00048828125)">
   <path d="M -4,459 L 1135,459 1135,606 -4,606 -4,459 Z"/>
  </g>
 </defs>
 <defs class="TextEmbeddedBitmaps"/>
 <g class="SlideGroup">
  <g>
   <g id="id1" class="Slide" clip-path="url(#presentation_clip_path)">
    <g class="Page">
     <g class="com.sun.star.drawing.CustomShape">
      <g id="id3">
       <path fill="rgb(0,0,0)" stroke="none" d="M 11250,4000 C 14227,4000 16500,6273 16500,9250 16500,12227 14227,14500 11250,14500 8273,14500 6000,12227 6000,9250 6000,6273 8273,4000 11250,4000 Z M 6000,4000 L 6000,4000 Z M 16501,14501 L 16501,14501 Z"/>
      </g>
     </g>
     <g class="com.sun.star.drawing.CustomShape">
      <g id="id4">
       <path fill="rgb(255,255,255)" stroke="none" d="M 11250,4500 C 13943,4500 16000,6557 16000,9250 16000,11943 13943,14000 11250,14000 8557,14000 6500,11943 6500,9250 6500,6557 8557,4500 11250,4500 Z M 6500,4500 L 6500,4500 Z M 16001,14001 L 16001,14001 Z"/>
      </g>
     </g>
     <g class="com.sun.star.drawing.CustomShape">
      <g id="id5">
       <path fill="rgb(0,0,0)" stroke="none" d="M 8250,12500 L 8000,12500 8000,7000 8500,7000 8500,12500 8250,12500 Z"/>
      </g>
     </g>
     <g class="com.sun.star.drawing.CustomShape">
      <g id="id6">
       <path fill="rgb(0,0,0)" stroke="none" d="M 11250,12500 L 11000,12500 11000,7000 11500,7000 11500,12500 11250,12500 Z"/>
      </g>
     </g>
     <g class="com.sun.star.drawing.CustomShape">
      <g id="id7">
       <path fill="rgb(0,0,0)" stroke="none" d="M 12750,12500 L 11000,12500 11000,12000 14500,12000 14500,12500 12750,12500 Z"/>
      </g>
     </g>
     <g class="com.sun.star.drawing.ClosedBezierShape">
      <g id="id8">
       <path fill="rgb(0,0,0)" stroke="none" d="M 9500,7000 C 9500,6717 9283,6500 9000,6500 8717,6500 8500,6717 8500,7000 L 8500,7873 C 8197,7704 8000,7383 8000,7000 8000,6433 8433,6000 9000,6000 9567,6000 10000,6433 10000,7000 10000,7383 9803,7704 9500,7873 L 9500,7000 Z"/>
      </g>
     </g>
     <g class="com.sun.star.drawing.ClosedBezierShape">
      <g id="id9">
       <path fill="rgb(0,0,0)" stroke="none" d="M 11000,7001 C 11000,6718 10783,6501 10500,6501 10217,6501 10000,6718 10000,7001 L 10000,7874 C 9697,7705 9500,7384 9500,7001 9500,6434 9933,6001 10500,6001 11067,6001 11500,6434 11500,7001 11500,7384 11303,7705 11000,7874 L 11000,7001 Z"/>
      </g>
     </g>
     <g class="com.sun.star.drawing.ClosedBezierShape">
      <g id="id10">
       <path fill="rgb(0,0,0)" stroke="none" d="M 13000,6500 C 12433,6500 12000,6933 12000,7500 12000,8067 12433,8500 13000,8500 13567,8500 14000,8067 14000,7500 14000,6933 13567,6500 13000,6500 Z M 13000,6000 C 13850,6000 14500,6650 14500,7500 14500,8350 13850,9000 13000,9000 12150,9000 11500,8350 11500,7500 11500,6650 12150,6000 13000,6000 Z"/>
      </g>
     </g>
     <g class="com.sun.star.drawing.PolyPolygonShape">
      <g id="id11">
       <path fill="rgb(0,0,0)" stroke="none" d="M 14500,9000 L 14500,9497 11867,12339 11500,11999 14278,9000 14500,9000 Z"/>
      </g>
     </g>
     <g class="com.sun.star.drawing.ClosedBezierShape">
      <g id="id12">
       <path fill="rgb(0,0,0)" stroke="none" d="M 9750,9000 C 9608,9000 9500,9108 9500,9250 9500,9392 9608,9500 9750,9500 9892,9500 10000,9392 10000,9250 10000,9108 9892,9000 9750,9000 Z M 9500,12500 L 9500,7000 10000,7000 10000,12500 9500,12500 Z"/>
      </g>
     </g>
     <g class="com.sun.star.drawing.ClosedBezierShape">
      <g id="id13">
       <path fill="rgb(0,0,0)" stroke="none" d="M 9751,9000 C 9609,9000 9501,9108 9501,9250 9501,9392 9609,9500 9751,9500 9893,9500 10001,9392 10001,9250 10001,9108 9893,9000 9751,9000 Z M 9500,9500 L 9500,9000 14500,9000 14500,9500 9500,9500 Z"/>
      </g>
     </g>
     <g class="com.sun.star.drawing.ClosedBezierShape">
      <g id="id14">
       <path fill="rgb(0,0,0)" stroke="none" d="M 9501,9250 C 9501,9392 9609,9500 9751,9500 9893,9500 10001,9392 10001,9250 10001,9168 9965,9097 9907,9052 10196,9129 10445,9286 10633,9500 L 9751,9500 9500,9500 C 8933,9500 8500,9933 8500,10500 L 8500,11633 C 8190,11362 8000,10960 8000,10500 8000,9650 8650,9000 9500,9000 9561,9000 9620,9003 9679,9010 9574,9039 9501,9133 9501,9250 Z"/>
      </g>
     </g>
    </g>
   </g>
  </g>
 </g>
</svg>